<mxfile host="app.diagrams.net" agent="Mozilla/5.0 (Windows NT 10.0; Win64; x64) AppleWebKit/537.36 (KHTML, like Gecko) Chrome/131.0.0.0 Safari/537.36 Edg/131.0.0.0" version="25.0.1">
  <diagram name="1 oldal" id="OmvIn5t_-zWDltA8pgF1">
    <mxGraphModel dx="1011" dy="1109" grid="1" gridSize="10" guides="1" tooltips="1" connect="1" arrows="1" fold="1" page="1" pageScale="1" pageWidth="827" pageHeight="1169" math="0" shadow="0">
      <root>
        <mxCell id="0" />
        <mxCell id="1" parent="0" />
        <mxCell id="syW9eS-d59TfF-ekeRGE-1" value="Rendelo" style="ellipse;whiteSpace=wrap;html=1;" vertex="1" parent="1">
          <mxGeometry x="360" y="40" width="120" height="80" as="geometry" />
        </mxCell>
        <mxCell id="syW9eS-d59TfF-ekeRGE-2" value="Orvos" style="ellipse;whiteSpace=wrap;html=1;" vertex="1" parent="1">
          <mxGeometry x="160" y="200" width="120" height="80" as="geometry" />
        </mxCell>
        <mxCell id="syW9eS-d59TfF-ekeRGE-3" value="Paciens" style="ellipse;whiteSpace=wrap;html=1;" vertex="1" parent="1">
          <mxGeometry x="560" y="200" width="120" height="80" as="geometry" />
        </mxCell>
        <mxCell id="syW9eS-d59TfF-ekeRGE-4" value="Vizsgalat" style="ellipse;whiteSpace=wrap;html=1;" vertex="1" parent="1">
          <mxGeometry x="560" y="640" width="120" height="80" as="geometry" />
        </mxCell>
        <mxCell id="syW9eS-d59TfF-ekeRGE-5" value="Gyogyszer" style="ellipse;whiteSpace=wrap;html=1;" vertex="1" parent="1">
          <mxGeometry x="560" y="920" width="120" height="80" as="geometry" />
        </mxCell>
        <mxCell id="syW9eS-d59TfF-ekeRGE-6" value="Idopont" style="ellipse;whiteSpace=wrap;html=1;" vertex="1" parent="1">
          <mxGeometry x="280" y="920" width="120" height="80" as="geometry" />
        </mxCell>
        <mxCell id="syW9eS-d59TfF-ekeRGE-7" value="" style="endArrow=none;html=1;rounded=0;entryX=0;entryY=1;entryDx=0;entryDy=0;exitX=0.5;exitY=0;exitDx=0;exitDy=0;" edge="1" parent="1" source="syW9eS-d59TfF-ekeRGE-2" target="syW9eS-d59TfF-ekeRGE-1">
          <mxGeometry width="50" height="50" relative="1" as="geometry">
            <mxPoint x="400" y="460" as="sourcePoint" />
            <mxPoint x="450" y="410" as="targetPoint" />
          </mxGeometry>
        </mxCell>
        <mxCell id="syW9eS-d59TfF-ekeRGE-8" value="" style="endArrow=none;html=1;rounded=0;entryX=1;entryY=1;entryDx=0;entryDy=0;exitX=0.5;exitY=0;exitDx=0;exitDy=0;" edge="1" parent="1" source="syW9eS-d59TfF-ekeRGE-3" target="syW9eS-d59TfF-ekeRGE-1">
          <mxGeometry width="50" height="50" relative="1" as="geometry">
            <mxPoint x="400" y="220" as="sourcePoint" />
            <mxPoint x="450" y="170" as="targetPoint" />
          </mxGeometry>
        </mxCell>
        <mxCell id="syW9eS-d59TfF-ekeRGE-9" value="" style="endArrow=none;html=1;rounded=0;entryX=0.5;entryY=1;entryDx=0;entryDy=0;exitX=0.5;exitY=0;exitDx=0;exitDy=0;" edge="1" parent="1" source="syW9eS-d59TfF-ekeRGE-4" target="syW9eS-d59TfF-ekeRGE-3">
          <mxGeometry width="50" height="50" relative="1" as="geometry">
            <mxPoint x="400" y="380" as="sourcePoint" />
            <mxPoint x="450" y="330" as="targetPoint" />
          </mxGeometry>
        </mxCell>
        <mxCell id="syW9eS-d59TfF-ekeRGE-10" value="" style="endArrow=none;html=1;rounded=0;entryX=1;entryY=0;entryDx=0;entryDy=0;exitX=0.238;exitY=0.929;exitDx=0;exitDy=0;exitPerimeter=0;" edge="1" parent="1" source="syW9eS-d59TfF-ekeRGE-4" target="syW9eS-d59TfF-ekeRGE-6">
          <mxGeometry width="50" height="50" relative="1" as="geometry">
            <mxPoint x="400" y="460" as="sourcePoint" />
            <mxPoint x="450" y="410" as="targetPoint" />
          </mxGeometry>
        </mxCell>
        <mxCell id="syW9eS-d59TfF-ekeRGE-11" value="" style="endArrow=none;html=1;rounded=0;entryX=0.5;entryY=0;entryDx=0;entryDy=0;exitX=0.5;exitY=1;exitDx=0;exitDy=0;" edge="1" parent="1" source="syW9eS-d59TfF-ekeRGE-4" target="syW9eS-d59TfF-ekeRGE-5">
          <mxGeometry width="50" height="50" relative="1" as="geometry">
            <mxPoint x="400" y="460" as="sourcePoint" />
            <mxPoint x="450" y="410" as="targetPoint" />
          </mxGeometry>
        </mxCell>
        <mxCell id="syW9eS-d59TfF-ekeRGE-13" value="Email" style="ellipse;whiteSpace=wrap;html=1;" vertex="1" parent="1">
          <mxGeometry x="120" y="450" width="80" height="60" as="geometry" />
        </mxCell>
        <mxCell id="syW9eS-d59TfF-ekeRGE-14" value="Telefonszam" style="ellipse;whiteSpace=wrap;html=1;" vertex="1" parent="1">
          <mxGeometry x="20" y="420" width="80" height="60" as="geometry" />
        </mxCell>
        <mxCell id="syW9eS-d59TfF-ekeRGE-15" value="Elerhetoseg" style="ellipse;whiteSpace=wrap;html=1;" vertex="1" parent="1">
          <mxGeometry x="120" y="330" width="80" height="60" as="geometry" />
        </mxCell>
        <mxCell id="syW9eS-d59TfF-ekeRGE-16" value="Szakterulet" style="ellipse;whiteSpace=wrap;html=1;" vertex="1" parent="1">
          <mxGeometry x="200" y="390" width="80" height="60" as="geometry" />
        </mxCell>
        <mxCell id="syW9eS-d59TfF-ekeRGE-17" value="Nev" style="ellipse;whiteSpace=wrap;html=1;" vertex="1" parent="1">
          <mxGeometry x="30" y="290" width="80" height="60" as="geometry" />
        </mxCell>
        <mxCell id="syW9eS-d59TfF-ekeRGE-18" value="OID" style="rhombus;whiteSpace=wrap;html=1;" vertex="1" parent="1">
          <mxGeometry x="40" y="210" width="60" height="60" as="geometry" />
        </mxCell>
        <mxCell id="syW9eS-d59TfF-ekeRGE-19" value="" style="endArrow=none;html=1;rounded=0;entryX=0;entryY=0.5;entryDx=0;entryDy=0;exitX=1;exitY=0.5;exitDx=0;exitDy=0;" edge="1" parent="1" source="syW9eS-d59TfF-ekeRGE-18" target="syW9eS-d59TfF-ekeRGE-2">
          <mxGeometry width="50" height="50" relative="1" as="geometry">
            <mxPoint x="230" y="210" as="sourcePoint" />
            <mxPoint x="388" y="118" as="targetPoint" />
          </mxGeometry>
        </mxCell>
        <mxCell id="syW9eS-d59TfF-ekeRGE-20" value="" style="endArrow=none;html=1;rounded=0;entryX=0;entryY=1;entryDx=0;entryDy=0;exitX=1;exitY=0;exitDx=0;exitDy=0;" edge="1" parent="1" source="syW9eS-d59TfF-ekeRGE-17" target="syW9eS-d59TfF-ekeRGE-2">
          <mxGeometry width="50" height="50" relative="1" as="geometry">
            <mxPoint x="110" y="240" as="sourcePoint" />
            <mxPoint x="170" y="250" as="targetPoint" />
          </mxGeometry>
        </mxCell>
        <mxCell id="syW9eS-d59TfF-ekeRGE-21" value="" style="endArrow=none;html=1;rounded=0;entryX=0.5;entryY=1;entryDx=0;entryDy=0;exitX=0.5;exitY=0;exitDx=0;exitDy=0;" edge="1" parent="1" source="syW9eS-d59TfF-ekeRGE-15" target="syW9eS-d59TfF-ekeRGE-2">
          <mxGeometry width="50" height="50" relative="1" as="geometry">
            <mxPoint x="120" y="250" as="sourcePoint" />
            <mxPoint x="180" y="260" as="targetPoint" />
          </mxGeometry>
        </mxCell>
        <mxCell id="syW9eS-d59TfF-ekeRGE-22" value="" style="endArrow=none;html=1;rounded=0;entryX=0.649;entryY=0.986;entryDx=0;entryDy=0;exitX=0.5;exitY=0;exitDx=0;exitDy=0;entryPerimeter=0;" edge="1" parent="1" source="syW9eS-d59TfF-ekeRGE-16" target="syW9eS-d59TfF-ekeRGE-2">
          <mxGeometry width="50" height="50" relative="1" as="geometry">
            <mxPoint x="200" y="330" as="sourcePoint" />
            <mxPoint x="230" y="290" as="targetPoint" />
          </mxGeometry>
        </mxCell>
        <mxCell id="syW9eS-d59TfF-ekeRGE-24" value="" style="endArrow=none;html=1;rounded=0;entryX=0;entryY=1;entryDx=0;entryDy=0;exitX=1;exitY=0;exitDx=0;exitDy=0;" edge="1" parent="1" source="syW9eS-d59TfF-ekeRGE-14" target="syW9eS-d59TfF-ekeRGE-15">
          <mxGeometry width="50" height="50" relative="1" as="geometry">
            <mxPoint x="138" y="309" as="sourcePoint" />
            <mxPoint x="188" y="278" as="targetPoint" />
          </mxGeometry>
        </mxCell>
        <mxCell id="syW9eS-d59TfF-ekeRGE-25" value="" style="endArrow=none;html=1;rounded=0;entryX=0.5;entryY=1;entryDx=0;entryDy=0;exitX=0.5;exitY=0;exitDx=0;exitDy=0;" edge="1" parent="1" source="syW9eS-d59TfF-ekeRGE-13" target="syW9eS-d59TfF-ekeRGE-15">
          <mxGeometry width="50" height="50" relative="1" as="geometry">
            <mxPoint x="168" y="399" as="sourcePoint" />
            <mxPoint x="202" y="371" as="targetPoint" />
          </mxGeometry>
        </mxCell>
        <mxCell id="syW9eS-d59TfF-ekeRGE-26" value="Cim" style="ellipse;whiteSpace=wrap;html=1;" vertex="1" parent="1">
          <mxGeometry x="730" y="270" width="80" height="60" as="geometry" />
        </mxCell>
        <mxCell id="syW9eS-d59TfF-ekeRGE-27" value="Telefonszam" style="ellipse;whiteSpace=wrap;html=1;" vertex="1" parent="1">
          <mxGeometry x="880" y="210" width="80" height="60" as="geometry" />
        </mxCell>
        <mxCell id="syW9eS-d59TfF-ekeRGE-28" value="SzuletesiDatum" style="ellipse;whiteSpace=wrap;html=1;" vertex="1" parent="1">
          <mxGeometry x="520" y="350" width="80" height="60" as="geometry" />
        </mxCell>
        <mxCell id="syW9eS-d59TfF-ekeRGE-29" value="Nev" style="ellipse;whiteSpace=wrap;html=1;" vertex="1" parent="1">
          <mxGeometry x="440" y="290" width="80" height="60" as="geometry" />
        </mxCell>
        <mxCell id="syW9eS-d59TfF-ekeRGE-30" value="Hazszam" style="ellipse;whiteSpace=wrap;html=1;" vertex="1" parent="1">
          <mxGeometry x="810" y="350" width="80" height="60" as="geometry" />
        </mxCell>
        <mxCell id="syW9eS-d59TfF-ekeRGE-31" value="Utca" style="ellipse;whiteSpace=wrap;html=1;" vertex="1" parent="1">
          <mxGeometry x="730" y="410" width="80" height="60" as="geometry" />
        </mxCell>
        <mxCell id="syW9eS-d59TfF-ekeRGE-32" value="Varos" style="ellipse;whiteSpace=wrap;html=1;" vertex="1" parent="1">
          <mxGeometry x="650" y="350" width="80" height="60" as="geometry" />
        </mxCell>
        <mxCell id="syW9eS-d59TfF-ekeRGE-33" value="PID" style="rhombus;whiteSpace=wrap;html=1;" vertex="1" parent="1">
          <mxGeometry x="450" y="210" width="60" height="60" as="geometry" />
        </mxCell>
        <mxCell id="syW9eS-d59TfF-ekeRGE-34" value="" style="endArrow=none;html=1;rounded=0;entryX=1;entryY=0.5;entryDx=0;entryDy=0;exitX=0;exitY=0.5;exitDx=0;exitDy=0;" edge="1" parent="1" source="syW9eS-d59TfF-ekeRGE-3" target="syW9eS-d59TfF-ekeRGE-33">
          <mxGeometry width="50" height="50" relative="1" as="geometry">
            <mxPoint x="630" y="210" as="sourcePoint" />
            <mxPoint x="472" y="118" as="targetPoint" />
          </mxGeometry>
        </mxCell>
        <mxCell id="syW9eS-d59TfF-ekeRGE-35" value="" style="endArrow=none;html=1;rounded=0;entryX=1;entryY=0;entryDx=0;entryDy=0;exitX=0.056;exitY=0.703;exitDx=0;exitDy=0;exitPerimeter=0;" edge="1" parent="1" source="syW9eS-d59TfF-ekeRGE-3" target="syW9eS-d59TfF-ekeRGE-29">
          <mxGeometry width="50" height="50" relative="1" as="geometry">
            <mxPoint x="570" y="250" as="sourcePoint" />
            <mxPoint x="520" y="250" as="targetPoint" />
          </mxGeometry>
        </mxCell>
        <mxCell id="syW9eS-d59TfF-ekeRGE-36" value="" style="endArrow=none;html=1;rounded=0;entryX=0.5;entryY=0;entryDx=0;entryDy=0;exitX=0.27;exitY=0.965;exitDx=0;exitDy=0;exitPerimeter=0;" edge="1" parent="1" source="syW9eS-d59TfF-ekeRGE-3" target="syW9eS-d59TfF-ekeRGE-28">
          <mxGeometry width="50" height="50" relative="1" as="geometry">
            <mxPoint x="580" y="260" as="sourcePoint" />
            <mxPoint x="530" y="260" as="targetPoint" />
          </mxGeometry>
        </mxCell>
        <mxCell id="syW9eS-d59TfF-ekeRGE-37" value="" style="endArrow=none;html=1;rounded=0;entryX=0;entryY=0.5;entryDx=0;entryDy=0;exitX=1;exitY=0.5;exitDx=0;exitDy=0;" edge="1" parent="1" source="syW9eS-d59TfF-ekeRGE-3" target="syW9eS-d59TfF-ekeRGE-27">
          <mxGeometry width="50" height="50" relative="1" as="geometry">
            <mxPoint x="602" y="287" as="sourcePoint" />
            <mxPoint x="570" y="360" as="targetPoint" />
          </mxGeometry>
        </mxCell>
        <mxCell id="syW9eS-d59TfF-ekeRGE-38" value="" style="endArrow=none;html=1;rounded=0;entryX=0;entryY=0;entryDx=0;entryDy=0;exitX=1;exitY=1;exitDx=0;exitDy=0;" edge="1" parent="1" source="syW9eS-d59TfF-ekeRGE-3" target="syW9eS-d59TfF-ekeRGE-26">
          <mxGeometry width="50" height="50" relative="1" as="geometry">
            <mxPoint x="612" y="297" as="sourcePoint" />
            <mxPoint x="580" y="370" as="targetPoint" />
          </mxGeometry>
        </mxCell>
        <mxCell id="syW9eS-d59TfF-ekeRGE-39" value="" style="endArrow=none;html=1;rounded=0;entryX=0.72;entryY=0.088;entryDx=0;entryDy=0;exitX=0;exitY=1;exitDx=0;exitDy=0;entryPerimeter=0;" edge="1" parent="1" source="syW9eS-d59TfF-ekeRGE-26" target="syW9eS-d59TfF-ekeRGE-32">
          <mxGeometry width="50" height="50" relative="1" as="geometry">
            <mxPoint x="672" y="278" as="sourcePoint" />
            <mxPoint x="711" y="309" as="targetPoint" />
          </mxGeometry>
        </mxCell>
        <mxCell id="syW9eS-d59TfF-ekeRGE-40" value="" style="endArrow=none;html=1;rounded=0;entryX=0.315;entryY=0.025;entryDx=0;entryDy=0;exitX=1;exitY=1;exitDx=0;exitDy=0;entryPerimeter=0;" edge="1" parent="1" source="syW9eS-d59TfF-ekeRGE-26" target="syW9eS-d59TfF-ekeRGE-30">
          <mxGeometry width="50" height="50" relative="1" as="geometry">
            <mxPoint x="711" y="351" as="sourcePoint" />
            <mxPoint x="680" y="370" as="targetPoint" />
          </mxGeometry>
        </mxCell>
        <mxCell id="syW9eS-d59TfF-ekeRGE-41" value="" style="endArrow=none;html=1;rounded=0;entryX=0.5;entryY=0;entryDx=0;entryDy=0;exitX=0.5;exitY=1;exitDx=0;exitDy=0;" edge="1" parent="1" source="syW9eS-d59TfF-ekeRGE-26" target="syW9eS-d59TfF-ekeRGE-31">
          <mxGeometry width="50" height="50" relative="1" as="geometry">
            <mxPoint x="721" y="361" as="sourcePoint" />
            <mxPoint x="690" y="380" as="targetPoint" />
          </mxGeometry>
        </mxCell>
        <mxCell id="syW9eS-d59TfF-ekeRGE-42" value="Datum" style="ellipse;whiteSpace=wrap;html=1;" vertex="1" parent="1">
          <mxGeometry x="700" y="740" width="80" height="60" as="geometry" />
        </mxCell>
        <mxCell id="syW9eS-d59TfF-ekeRGE-43" value="Tipus" style="ellipse;whiteSpace=wrap;html=1;" vertex="1" parent="1">
          <mxGeometry x="380" y="720" width="80" height="60" as="geometry" />
        </mxCell>
        <mxCell id="syW9eS-d59TfF-ekeRGE-44" value="Diagnozis" style="ellipse;whiteSpace=wrap;html=1;" vertex="1" parent="1">
          <mxGeometry x="840" y="720" width="80" height="60" as="geometry" />
        </mxCell>
        <mxCell id="syW9eS-d59TfF-ekeRGE-46" value="VID" style="rhombus;whiteSpace=wrap;html=1;" vertex="1" parent="1">
          <mxGeometry x="440" y="650" width="60" height="60" as="geometry" />
        </mxCell>
        <mxCell id="syW9eS-d59TfF-ekeRGE-47" value="" style="endArrow=none;html=1;rounded=0;exitX=1;exitY=0.5;exitDx=0;exitDy=0;" edge="1" parent="1" source="syW9eS-d59TfF-ekeRGE-46" target="syW9eS-d59TfF-ekeRGE-4">
          <mxGeometry width="50" height="50" relative="1" as="geometry">
            <mxPoint x="550" y="590" as="sourcePoint" />
            <mxPoint x="550" y="670" as="targetPoint" />
          </mxGeometry>
        </mxCell>
        <mxCell id="syW9eS-d59TfF-ekeRGE-48" value="" style="endArrow=none;html=1;rounded=0;exitX=1;exitY=0.302;exitDx=0;exitDy=0;entryX=0.032;entryY=0.667;entryDx=0;entryDy=0;entryPerimeter=0;exitPerimeter=0;" edge="1" parent="1" source="syW9eS-d59TfF-ekeRGE-43" target="syW9eS-d59TfF-ekeRGE-4">
          <mxGeometry width="50" height="50" relative="1" as="geometry">
            <mxPoint x="570" y="600" as="sourcePoint" />
            <mxPoint x="606" y="653" as="targetPoint" />
          </mxGeometry>
        </mxCell>
        <mxCell id="syW9eS-d59TfF-ekeRGE-49" value="" style="endArrow=none;html=1;rounded=0;exitX=1;exitY=0.5;exitDx=0;exitDy=0;entryX=0;entryY=0.5;entryDx=0;entryDy=0;" edge="1" parent="1" source="syW9eS-d59TfF-ekeRGE-4" target="syW9eS-d59TfF-ekeRGE-44">
          <mxGeometry width="50" height="50" relative="1" as="geometry">
            <mxPoint x="700" y="603.5" as="sourcePoint" />
            <mxPoint x="736" y="656.5" as="targetPoint" />
          </mxGeometry>
        </mxCell>
        <mxCell id="syW9eS-d59TfF-ekeRGE-50" value="" style="endArrow=none;html=1;rounded=0;exitX=1;exitY=1;exitDx=0;exitDy=0;entryX=0;entryY=0;entryDx=0;entryDy=0;" edge="1" parent="1" source="syW9eS-d59TfF-ekeRGE-4" target="syW9eS-d59TfF-ekeRGE-42">
          <mxGeometry width="50" height="50" relative="1" as="geometry">
            <mxPoint x="672" y="662" as="sourcePoint" />
            <mxPoint x="790" y="640" as="targetPoint" />
          </mxGeometry>
        </mxCell>
        <mxCell id="syW9eS-d59TfF-ekeRGE-51" value="Orvos" style="ellipse;whiteSpace=wrap;html=1;" vertex="1" parent="1">
          <mxGeometry x="170" y="210" width="100" height="60" as="geometry" />
        </mxCell>
        <mxCell id="syW9eS-d59TfF-ekeRGE-52" value="Paciens" style="ellipse;whiteSpace=wrap;html=1;" vertex="1" parent="1">
          <mxGeometry x="570" y="210" width="100" height="60" as="geometry" />
        </mxCell>
        <mxCell id="syW9eS-d59TfF-ekeRGE-53" value="Vizsgalat" style="ellipse;whiteSpace=wrap;html=1;" vertex="1" parent="1">
          <mxGeometry x="570" y="650" width="100" height="60" as="geometry" />
        </mxCell>
        <mxCell id="syW9eS-d59TfF-ekeRGE-54" value="Gyogyszer" style="ellipse;whiteSpace=wrap;html=1;" vertex="1" parent="1">
          <mxGeometry x="570" y="930" width="100" height="60" as="geometry" />
        </mxCell>
        <mxCell id="syW9eS-d59TfF-ekeRGE-55" value="Idopont" style="ellipse;whiteSpace=wrap;html=1;" vertex="1" parent="1">
          <mxGeometry x="290" y="930" width="100" height="60" as="geometry" />
        </mxCell>
        <mxCell id="syW9eS-d59TfF-ekeRGE-56" value="Mellekhatasok" style="ellipse;whiteSpace=wrap;html=1;" vertex="1" parent="1">
          <mxGeometry x="750" y="990" width="80" height="60" as="geometry" />
        </mxCell>
        <mxCell id="syW9eS-d59TfF-ekeRGE-57" value="Leiras" style="ellipse;whiteSpace=wrap;html=1;" vertex="1" parent="1">
          <mxGeometry x="680" y="1040" width="80" height="60" as="geometry" />
        </mxCell>
        <mxCell id="syW9eS-d59TfF-ekeRGE-58" value="Adagolas" style="ellipse;whiteSpace=wrap;html=1;" vertex="1" parent="1">
          <mxGeometry x="580" y="1050" width="80" height="60" as="geometry" />
        </mxCell>
        <mxCell id="syW9eS-d59TfF-ekeRGE-59" value="Nev" style="ellipse;whiteSpace=wrap;html=1;" vertex="1" parent="1">
          <mxGeometry x="480" y="1040" width="80" height="60" as="geometry" />
        </mxCell>
        <mxCell id="syW9eS-d59TfF-ekeRGE-60" value="GID" style="rhombus;whiteSpace=wrap;html=1;" vertex="1" parent="1">
          <mxGeometry x="430" y="990" width="60" height="60" as="geometry" />
        </mxCell>
        <mxCell id="syW9eS-d59TfF-ekeRGE-61" value="Telefonszam" style="ellipse;whiteSpace=wrap;html=1;" vertex="1" parent="1">
          <mxGeometry x="890" y="220" width="60" height="40" as="geometry" />
        </mxCell>
        <mxCell id="syW9eS-d59TfF-ekeRGE-62" value="Mellekhatasok" style="ellipse;whiteSpace=wrap;html=1;" vertex="1" parent="1">
          <mxGeometry x="760" y="1000" width="60" height="40" as="geometry" />
        </mxCell>
        <mxCell id="syW9eS-d59TfF-ekeRGE-63" value="" style="endArrow=none;html=1;rounded=0;exitX=1;exitY=0.5;exitDx=0;exitDy=0;" edge="1" parent="1" source="syW9eS-d59TfF-ekeRGE-5" target="syW9eS-d59TfF-ekeRGE-56">
          <mxGeometry width="50" height="50" relative="1" as="geometry">
            <mxPoint x="681" y="959" as="sourcePoint" />
            <mxPoint x="730" y="1000" as="targetPoint" />
          </mxGeometry>
        </mxCell>
        <mxCell id="syW9eS-d59TfF-ekeRGE-64" value="" style="endArrow=none;html=1;rounded=0;exitX=1;exitY=1;exitDx=0;exitDy=0;entryX=0.5;entryY=0;entryDx=0;entryDy=0;" edge="1" parent="1" source="syW9eS-d59TfF-ekeRGE-5" target="syW9eS-d59TfF-ekeRGE-57">
          <mxGeometry width="50" height="50" relative="1" as="geometry">
            <mxPoint x="690" y="970" as="sourcePoint" />
            <mxPoint x="768" y="1012" as="targetPoint" />
          </mxGeometry>
        </mxCell>
        <mxCell id="syW9eS-d59TfF-ekeRGE-65" value="" style="endArrow=none;html=1;rounded=0;exitX=0.5;exitY=1;exitDx=0;exitDy=0;entryX=0.5;entryY=0;entryDx=0;entryDy=0;" edge="1" parent="1" source="syW9eS-d59TfF-ekeRGE-5" target="syW9eS-d59TfF-ekeRGE-58">
          <mxGeometry width="50" height="50" relative="1" as="geometry">
            <mxPoint x="672" y="998" as="sourcePoint" />
            <mxPoint x="730" y="1050" as="targetPoint" />
          </mxGeometry>
        </mxCell>
        <mxCell id="syW9eS-d59TfF-ekeRGE-66" value="" style="endArrow=none;html=1;rounded=0;entryX=0.714;entryY=0.064;entryDx=0;entryDy=0;exitX=0;exitY=1;exitDx=0;exitDy=0;entryPerimeter=0;" edge="1" parent="1" source="syW9eS-d59TfF-ekeRGE-5" target="syW9eS-d59TfF-ekeRGE-59">
          <mxGeometry width="50" height="50" relative="1" as="geometry">
            <mxPoint x="630" y="1010" as="sourcePoint" />
            <mxPoint x="630" y="1060" as="targetPoint" />
          </mxGeometry>
        </mxCell>
        <mxCell id="syW9eS-d59TfF-ekeRGE-67" value="" style="endArrow=none;html=1;rounded=0;entryX=1;entryY=0.5;entryDx=0;entryDy=0;exitX=0;exitY=0.5;exitDx=0;exitDy=0;" edge="1" parent="1" source="syW9eS-d59TfF-ekeRGE-5" target="syW9eS-d59TfF-ekeRGE-60">
          <mxGeometry width="50" height="50" relative="1" as="geometry">
            <mxPoint x="588" y="998" as="sourcePoint" />
            <mxPoint x="547" y="1054" as="targetPoint" />
          </mxGeometry>
        </mxCell>
        <mxCell id="syW9eS-d59TfF-ekeRGE-69" value="Helyszin" style="ellipse;whiteSpace=wrap;html=1;" vertex="1" parent="1">
          <mxGeometry x="170" y="1000" width="80" height="60" as="geometry" />
        </mxCell>
        <mxCell id="syW9eS-d59TfF-ekeRGE-70" value="Datum" style="ellipse;whiteSpace=wrap;html=1;" vertex="1" parent="1">
          <mxGeometry x="250" y="1030" width="80" height="60" as="geometry" />
        </mxCell>
        <mxCell id="syW9eS-d59TfF-ekeRGE-71" value="Ido" style="ellipse;whiteSpace=wrap;html=1;" vertex="1" parent="1">
          <mxGeometry x="334" y="1040" width="80" height="60" as="geometry" />
        </mxCell>
        <mxCell id="syW9eS-d59TfF-ekeRGE-72" value="IID" style="rhombus;whiteSpace=wrap;html=1;" vertex="1" parent="1">
          <mxGeometry x="150" y="930" width="60" height="60" as="geometry" />
        </mxCell>
        <mxCell id="syW9eS-d59TfF-ekeRGE-73" value="Kezeles" style="ellipse;whiteSpace=wrap;html=1;" vertex="1" parent="1">
          <mxGeometry x="350" y="350" width="80" height="60" as="geometry" />
        </mxCell>
        <mxCell id="syW9eS-d59TfF-ekeRGE-74" value="" style="endArrow=none;html=1;rounded=0;entryX=0.939;entryY=0.758;entryDx=0;entryDy=0;exitX=0;exitY=0;exitDx=0;exitDy=0;entryPerimeter=0;" edge="1" parent="1" source="syW9eS-d59TfF-ekeRGE-73" target="syW9eS-d59TfF-ekeRGE-2">
          <mxGeometry width="50" height="50" relative="1" as="geometry">
            <mxPoint x="274" y="364" as="sourcePoint" />
            <mxPoint x="248" y="289" as="targetPoint" />
          </mxGeometry>
        </mxCell>
        <mxCell id="syW9eS-d59TfF-ekeRGE-75" value="Kezdes" style="ellipse;whiteSpace=wrap;html=1;" vertex="1" parent="1">
          <mxGeometry x="270" y="440" width="80" height="60" as="geometry" />
        </mxCell>
        <mxCell id="syW9eS-d59TfF-ekeRGE-76" value="Vege" style="ellipse;whiteSpace=wrap;html=1;" vertex="1" parent="1">
          <mxGeometry x="350" y="510" width="80" height="60" as="geometry" />
        </mxCell>
        <mxCell id="syW9eS-d59TfF-ekeRGE-78" value="" style="endArrow=none;html=1;rounded=0;entryX=0;entryY=1;entryDx=0;entryDy=0;exitX=0.718;exitY=0.054;exitDx=0;exitDy=0;exitPerimeter=0;" edge="1" parent="1" source="syW9eS-d59TfF-ekeRGE-75" target="syW9eS-d59TfF-ekeRGE-73">
          <mxGeometry width="50" height="50" relative="1" as="geometry">
            <mxPoint x="250" y="400" as="sourcePoint" />
            <mxPoint x="248" y="289" as="targetPoint" />
          </mxGeometry>
        </mxCell>
        <mxCell id="syW9eS-d59TfF-ekeRGE-79" value="" style="endArrow=none;html=1;rounded=0;entryX=0.5;entryY=1;entryDx=0;entryDy=0;exitX=0.5;exitY=0;exitDx=0;exitDy=0;" edge="1" parent="1" source="syW9eS-d59TfF-ekeRGE-76" target="syW9eS-d59TfF-ekeRGE-73">
          <mxGeometry width="50" height="50" relative="1" as="geometry">
            <mxPoint x="340" y="450" as="sourcePoint" />
            <mxPoint x="372" y="411" as="targetPoint" />
          </mxGeometry>
        </mxCell>
        <mxCell id="syW9eS-d59TfF-ekeRGE-80" value="" style="endArrow=none;html=1;rounded=0;entryX=1;entryY=1;entryDx=0;entryDy=0;exitX=0.5;exitY=0;exitDx=0;exitDy=0;" edge="1" parent="1" source="syW9eS-d59TfF-ekeRGE-81" target="syW9eS-d59TfF-ekeRGE-73">
          <mxGeometry width="50" height="50" relative="1" as="geometry">
            <mxPoint x="451.5100331711419" y="448.9421984308442" as="sourcePoint" />
            <mxPoint x="400" y="420" as="targetPoint" />
          </mxGeometry>
        </mxCell>
        <mxCell id="syW9eS-d59TfF-ekeRGE-81" value="KID" style="rhombus;whiteSpace=wrap;html=1;" vertex="1" parent="1">
          <mxGeometry x="430" y="440" width="60" height="60" as="geometry" />
        </mxCell>
        <mxCell id="syW9eS-d59TfF-ekeRGE-84" value="" style="curved=1;endArrow=classic;html=1;rounded=0;entryX=0;entryY=0.5;entryDx=0;entryDy=0;exitX=1;exitY=0;exitDx=0;exitDy=0;" edge="1" parent="1" source="syW9eS-d59TfF-ekeRGE-81" target="syW9eS-d59TfF-ekeRGE-33">
          <mxGeometry width="50" height="50" relative="1" as="geometry">
            <mxPoint x="490" y="430" as="sourcePoint" />
            <mxPoint x="440" y="250" as="targetPoint" />
            <Array as="points">
              <mxPoint x="440" y="380" />
              <mxPoint x="440" y="340" />
              <mxPoint x="420" y="340" />
              <mxPoint x="410" y="310" />
              <mxPoint x="370" y="300" />
              <mxPoint x="360" y="230" />
              <mxPoint x="370" y="190" />
              <mxPoint x="420" y="210" />
            </Array>
          </mxGeometry>
        </mxCell>
        <mxCell id="syW9eS-d59TfF-ekeRGE-85" value="" style="rounded=0;whiteSpace=wrap;html=1;" vertex="1" parent="1">
          <mxGeometry x="55" y="370" width="30" height="40" as="geometry" />
        </mxCell>
        <mxCell id="syW9eS-d59TfF-ekeRGE-86" value="" style="rounded=0;whiteSpace=wrap;html=1;" vertex="1" parent="1">
          <mxGeometry x="45" y="500" width="30" height="40" as="geometry" />
        </mxCell>
        <mxCell id="syW9eS-d59TfF-ekeRGE-87" value="" style="rounded=0;whiteSpace=wrap;html=1;" vertex="1" parent="1">
          <mxGeometry x="145" y="530" width="30" height="40" as="geometry" />
        </mxCell>
        <mxCell id="syW9eS-d59TfF-ekeRGE-88" value="" style="rounded=0;whiteSpace=wrap;html=1;" vertex="1" parent="1">
          <mxGeometry x="225" y="470" width="30" height="40" as="geometry" />
        </mxCell>
        <mxCell id="syW9eS-d59TfF-ekeRGE-89" value="" style="rounded=0;whiteSpace=wrap;html=1;" vertex="1" parent="1">
          <mxGeometry x="295" y="520" width="30" height="40" as="geometry" />
        </mxCell>
        <mxCell id="syW9eS-d59TfF-ekeRGE-90" value="" style="rounded=0;whiteSpace=wrap;html=1;" vertex="1" parent="1">
          <mxGeometry x="375" y="584" width="30" height="40" as="geometry" />
        </mxCell>
        <mxCell id="syW9eS-d59TfF-ekeRGE-91" value="" style="endArrow=none;html=1;rounded=0;entryX=0.5;entryY=1;entryDx=0;entryDy=0;exitX=0.5;exitY=0;exitDx=0;exitDy=0;" edge="1" parent="1" source="syW9eS-d59TfF-ekeRGE-85" target="syW9eS-d59TfF-ekeRGE-17">
          <mxGeometry width="50" height="50" relative="1" as="geometry">
            <mxPoint x="98" y="439" as="sourcePoint" />
            <mxPoint x="142" y="391" as="targetPoint" />
          </mxGeometry>
        </mxCell>
        <mxCell id="syW9eS-d59TfF-ekeRGE-92" value="" style="endArrow=none;html=1;rounded=0;entryX=0.5;entryY=1;entryDx=0;entryDy=0;exitX=0.5;exitY=0;exitDx=0;exitDy=0;" edge="1" parent="1" source="syW9eS-d59TfF-ekeRGE-86" target="syW9eS-d59TfF-ekeRGE-14">
          <mxGeometry width="50" height="50" relative="1" as="geometry">
            <mxPoint x="80" y="380" as="sourcePoint" />
            <mxPoint x="80" y="360" as="targetPoint" />
          </mxGeometry>
        </mxCell>
        <mxCell id="syW9eS-d59TfF-ekeRGE-93" value="" style="endArrow=none;html=1;rounded=0;entryX=0.5;entryY=1;entryDx=0;entryDy=0;exitX=0.5;exitY=0;exitDx=0;exitDy=0;" edge="1" parent="1">
          <mxGeometry width="50" height="50" relative="1" as="geometry">
            <mxPoint x="160" y="530" as="sourcePoint" />
            <mxPoint x="160" y="510" as="targetPoint" />
          </mxGeometry>
        </mxCell>
        <mxCell id="syW9eS-d59TfF-ekeRGE-94" value="" style="endArrow=none;html=1;rounded=0;entryX=0.5;entryY=1;entryDx=0;entryDy=0;exitX=0.5;exitY=0;exitDx=0;exitDy=0;" edge="1" parent="1" source="syW9eS-d59TfF-ekeRGE-88" target="syW9eS-d59TfF-ekeRGE-16">
          <mxGeometry width="50" height="50" relative="1" as="geometry">
            <mxPoint x="170" y="540" as="sourcePoint" />
            <mxPoint x="170" y="520" as="targetPoint" />
          </mxGeometry>
        </mxCell>
        <mxCell id="syW9eS-d59TfF-ekeRGE-95" value="" style="endArrow=none;html=1;rounded=0;entryX=0.5;entryY=1;entryDx=0;entryDy=0;exitX=0.5;exitY=0;exitDx=0;exitDy=0;" edge="1" parent="1" source="syW9eS-d59TfF-ekeRGE-89" target="syW9eS-d59TfF-ekeRGE-75">
          <mxGeometry width="50" height="50" relative="1" as="geometry">
            <mxPoint x="250" y="480" as="sourcePoint" />
            <mxPoint x="250" y="460" as="targetPoint" />
          </mxGeometry>
        </mxCell>
        <mxCell id="syW9eS-d59TfF-ekeRGE-96" value="" style="endArrow=none;html=1;rounded=0;entryX=0.5;entryY=1;entryDx=0;entryDy=0;exitX=0.5;exitY=0;exitDx=0;exitDy=0;" edge="1" parent="1" source="syW9eS-d59TfF-ekeRGE-90" target="syW9eS-d59TfF-ekeRGE-76">
          <mxGeometry width="50" height="50" relative="1" as="geometry">
            <mxPoint x="320" y="530" as="sourcePoint" />
            <mxPoint x="320" y="510" as="targetPoint" />
          </mxGeometry>
        </mxCell>
        <mxCell id="syW9eS-d59TfF-ekeRGE-97" value="" style="rounded=0;whiteSpace=wrap;html=1;" vertex="1" parent="1">
          <mxGeometry x="465" y="370" width="30" height="40" as="geometry" />
        </mxCell>
        <mxCell id="syW9eS-d59TfF-ekeRGE-98" value="" style="endArrow=none;html=1;rounded=0;entryX=0.5;entryY=1;entryDx=0;entryDy=0;exitX=0.5;exitY=0;exitDx=0;exitDy=0;" edge="1" parent="1" source="syW9eS-d59TfF-ekeRGE-97" target="syW9eS-d59TfF-ekeRGE-29">
          <mxGeometry width="50" height="50" relative="1" as="geometry">
            <mxPoint x="470" y="450" as="sourcePoint" />
            <mxPoint x="428" y="411" as="targetPoint" />
          </mxGeometry>
        </mxCell>
        <mxCell id="syW9eS-d59TfF-ekeRGE-99" value="" style="rounded=0;whiteSpace=wrap;html=1;" vertex="1" parent="1">
          <mxGeometry x="545" y="430" width="30" height="40" as="geometry" />
        </mxCell>
        <mxCell id="syW9eS-d59TfF-ekeRGE-100" value="" style="rounded=0;whiteSpace=wrap;html=1;" vertex="1" parent="1">
          <mxGeometry x="675" y="430" width="30" height="40" as="geometry" />
        </mxCell>
        <mxCell id="syW9eS-d59TfF-ekeRGE-101" value="" style="rounded=0;whiteSpace=wrap;html=1;" vertex="1" parent="1">
          <mxGeometry x="755" y="490" width="30" height="40" as="geometry" />
        </mxCell>
        <mxCell id="syW9eS-d59TfF-ekeRGE-102" value="" style="rounded=0;whiteSpace=wrap;html=1;" vertex="1" parent="1">
          <mxGeometry x="835" y="430" width="30" height="40" as="geometry" />
        </mxCell>
        <mxCell id="syW9eS-d59TfF-ekeRGE-103" value="" style="rounded=0;whiteSpace=wrap;html=1;" vertex="1" parent="1">
          <mxGeometry x="905" y="290" width="30" height="40" as="geometry" />
        </mxCell>
        <mxCell id="syW9eS-d59TfF-ekeRGE-104" value="" style="endArrow=none;html=1;rounded=0;entryX=0.5;entryY=0;entryDx=0;entryDy=0;exitX=0.5;exitY=1;exitDx=0;exitDy=0;" edge="1" parent="1" source="syW9eS-d59TfF-ekeRGE-27" target="syW9eS-d59TfF-ekeRGE-103">
          <mxGeometry width="50" height="50" relative="1" as="geometry">
            <mxPoint x="808" y="331" as="sourcePoint" />
            <mxPoint x="845" y="362" as="targetPoint" />
          </mxGeometry>
        </mxCell>
        <mxCell id="syW9eS-d59TfF-ekeRGE-105" value="" style="endArrow=none;html=1;rounded=0;entryX=0.5;entryY=0;entryDx=0;entryDy=0;exitX=0.5;exitY=1;exitDx=0;exitDy=0;" edge="1" parent="1" source="syW9eS-d59TfF-ekeRGE-30" target="syW9eS-d59TfF-ekeRGE-102">
          <mxGeometry width="50" height="50" relative="1" as="geometry">
            <mxPoint x="930" y="280" as="sourcePoint" />
            <mxPoint x="930" y="300" as="targetPoint" />
          </mxGeometry>
        </mxCell>
        <mxCell id="syW9eS-d59TfF-ekeRGE-106" value="" style="endArrow=none;html=1;rounded=0;entryX=0.5;entryY=0;entryDx=0;entryDy=0;exitX=0.5;exitY=1;exitDx=0;exitDy=0;" edge="1" parent="1" source="syW9eS-d59TfF-ekeRGE-31" target="syW9eS-d59TfF-ekeRGE-101">
          <mxGeometry width="50" height="50" relative="1" as="geometry">
            <mxPoint x="860" y="420" as="sourcePoint" />
            <mxPoint x="860" y="440" as="targetPoint" />
          </mxGeometry>
        </mxCell>
        <mxCell id="syW9eS-d59TfF-ekeRGE-107" value="" style="endArrow=none;html=1;rounded=0;entryX=0.5;entryY=0;entryDx=0;entryDy=0;exitX=0.5;exitY=1;exitDx=0;exitDy=0;" edge="1" parent="1" source="syW9eS-d59TfF-ekeRGE-32" target="syW9eS-d59TfF-ekeRGE-100">
          <mxGeometry width="50" height="50" relative="1" as="geometry">
            <mxPoint x="780" y="480" as="sourcePoint" />
            <mxPoint x="780" y="500" as="targetPoint" />
          </mxGeometry>
        </mxCell>
        <mxCell id="syW9eS-d59TfF-ekeRGE-108" value="" style="endArrow=none;html=1;rounded=0;entryX=0.5;entryY=0;entryDx=0;entryDy=0;exitX=0.5;exitY=1;exitDx=0;exitDy=0;" edge="1" parent="1" source="syW9eS-d59TfF-ekeRGE-28" target="syW9eS-d59TfF-ekeRGE-99">
          <mxGeometry width="50" height="50" relative="1" as="geometry">
            <mxPoint x="700" y="420" as="sourcePoint" />
            <mxPoint x="700" y="440" as="targetPoint" />
          </mxGeometry>
        </mxCell>
        <mxCell id="syW9eS-d59TfF-ekeRGE-110" value="" style="rounded=0;whiteSpace=wrap;html=1;" vertex="1" parent="1">
          <mxGeometry x="405" y="800" width="30" height="40" as="geometry" />
        </mxCell>
        <mxCell id="syW9eS-d59TfF-ekeRGE-111" value="" style="rounded=0;whiteSpace=wrap;html=1;" vertex="1" parent="1">
          <mxGeometry x="725" y="820" width="30" height="40" as="geometry" />
        </mxCell>
        <mxCell id="syW9eS-d59TfF-ekeRGE-112" value="" style="rounded=0;whiteSpace=wrap;html=1;" vertex="1" parent="1">
          <mxGeometry x="865" y="800" width="30" height="40" as="geometry" />
        </mxCell>
        <mxCell id="syW9eS-d59TfF-ekeRGE-113" value="" style="rounded=0;whiteSpace=wrap;html=1;" vertex="1" parent="1">
          <mxGeometry x="775" y="1070" width="30" height="40" as="geometry" />
        </mxCell>
        <mxCell id="syW9eS-d59TfF-ekeRGE-114" value="" style="rounded=0;whiteSpace=wrap;html=1;" vertex="1" parent="1">
          <mxGeometry x="705" y="1120" width="30" height="40" as="geometry" />
        </mxCell>
        <mxCell id="syW9eS-d59TfF-ekeRGE-115" value="" style="rounded=0;whiteSpace=wrap;html=1;" vertex="1" parent="1">
          <mxGeometry x="605" y="1129" width="30" height="40" as="geometry" />
        </mxCell>
        <mxCell id="syW9eS-d59TfF-ekeRGE-116" value="" style="rounded=0;whiteSpace=wrap;html=1;" vertex="1" parent="1">
          <mxGeometry x="505" y="1120" width="30" height="40" as="geometry" />
        </mxCell>
        <mxCell id="syW9eS-d59TfF-ekeRGE-117" value="" style="rounded=0;whiteSpace=wrap;html=1;" vertex="1" parent="1">
          <mxGeometry x="359" y="1120" width="30" height="40" as="geometry" />
        </mxCell>
        <mxCell id="syW9eS-d59TfF-ekeRGE-118" value="" style="rounded=0;whiteSpace=wrap;html=1;" vertex="1" parent="1">
          <mxGeometry x="275" y="1110" width="30" height="40" as="geometry" />
        </mxCell>
        <mxCell id="syW9eS-d59TfF-ekeRGE-119" value="" style="rounded=0;whiteSpace=wrap;html=1;" vertex="1" parent="1">
          <mxGeometry x="195" y="1080" width="30" height="40" as="geometry" />
        </mxCell>
        <mxCell id="syW9eS-d59TfF-ekeRGE-120" value="" style="endArrow=none;html=1;rounded=0;entryX=0.5;entryY=1;entryDx=0;entryDy=0;exitX=0.5;exitY=0;exitDx=0;exitDy=0;" edge="1" parent="1" source="syW9eS-d59TfF-ekeRGE-110" target="syW9eS-d59TfF-ekeRGE-43">
          <mxGeometry width="50" height="50" relative="1" as="geometry">
            <mxPoint x="400" y="890" as="sourcePoint" />
            <mxPoint x="450" y="840" as="targetPoint" />
          </mxGeometry>
        </mxCell>
        <mxCell id="syW9eS-d59TfF-ekeRGE-121" value="" style="endArrow=none;html=1;rounded=0;entryX=0.5;entryY=1;entryDx=0;entryDy=0;exitX=0.5;exitY=0;exitDx=0;exitDy=0;" edge="1" parent="1" source="syW9eS-d59TfF-ekeRGE-119" target="syW9eS-d59TfF-ekeRGE-69">
          <mxGeometry width="50" height="50" relative="1" as="geometry">
            <mxPoint x="400" y="890" as="sourcePoint" />
            <mxPoint x="450" y="840" as="targetPoint" />
          </mxGeometry>
        </mxCell>
        <mxCell id="syW9eS-d59TfF-ekeRGE-122" value="" style="endArrow=none;html=1;rounded=0;exitX=0.5;exitY=1;exitDx=0;exitDy=0;entryX=0.5;entryY=0;entryDx=0;entryDy=0;" edge="1" parent="1" source="syW9eS-d59TfF-ekeRGE-70" target="syW9eS-d59TfF-ekeRGE-118">
          <mxGeometry width="50" height="50" relative="1" as="geometry">
            <mxPoint x="400" y="890" as="sourcePoint" />
            <mxPoint x="450" y="840" as="targetPoint" />
          </mxGeometry>
        </mxCell>
        <mxCell id="syW9eS-d59TfF-ekeRGE-123" value="" style="endArrow=none;html=1;rounded=0;exitX=0.5;exitY=1;exitDx=0;exitDy=0;entryX=0.5;entryY=0;entryDx=0;entryDy=0;" edge="1" parent="1" source="syW9eS-d59TfF-ekeRGE-71" target="syW9eS-d59TfF-ekeRGE-117">
          <mxGeometry width="50" height="50" relative="1" as="geometry">
            <mxPoint x="300" y="1100" as="sourcePoint" />
            <mxPoint x="300" y="1120" as="targetPoint" />
          </mxGeometry>
        </mxCell>
        <mxCell id="syW9eS-d59TfF-ekeRGE-124" value="" style="endArrow=none;html=1;rounded=0;exitX=0.675;exitY=0.975;exitDx=0;exitDy=0;entryX=0.5;entryY=0;entryDx=0;entryDy=0;exitPerimeter=0;" edge="1" parent="1" source="syW9eS-d59TfF-ekeRGE-6" target="syW9eS-d59TfF-ekeRGE-71">
          <mxGeometry width="50" height="50" relative="1" as="geometry">
            <mxPoint x="384" y="1110" as="sourcePoint" />
            <mxPoint x="384" y="1130" as="targetPoint" />
          </mxGeometry>
        </mxCell>
        <mxCell id="syW9eS-d59TfF-ekeRGE-125" value="" style="endArrow=none;html=1;rounded=0;exitX=0.3;exitY=0.975;exitDx=0;exitDy=0;entryX=0.5;entryY=0;entryDx=0;entryDy=0;exitPerimeter=0;" edge="1" parent="1" source="syW9eS-d59TfF-ekeRGE-6" target="syW9eS-d59TfF-ekeRGE-70">
          <mxGeometry width="50" height="50" relative="1" as="geometry">
            <mxPoint x="371" y="1008" as="sourcePoint" />
            <mxPoint x="384" y="1050" as="targetPoint" />
          </mxGeometry>
        </mxCell>
        <mxCell id="syW9eS-d59TfF-ekeRGE-126" value="" style="endArrow=none;html=1;rounded=0;exitX=0.058;exitY=0.725;exitDx=0;exitDy=0;entryX=1;entryY=0;entryDx=0;entryDy=0;exitPerimeter=0;" edge="1" parent="1" source="syW9eS-d59TfF-ekeRGE-6" target="syW9eS-d59TfF-ekeRGE-69">
          <mxGeometry width="50" height="50" relative="1" as="geometry">
            <mxPoint x="326" y="1008" as="sourcePoint" />
            <mxPoint x="300" y="1040" as="targetPoint" />
          </mxGeometry>
        </mxCell>
        <mxCell id="syW9eS-d59TfF-ekeRGE-127" value="" style="endArrow=none;html=1;rounded=0;exitX=0;exitY=0.5;exitDx=0;exitDy=0;entryX=1;entryY=0.5;entryDx=0;entryDy=0;" edge="1" parent="1" source="syW9eS-d59TfF-ekeRGE-6" target="syW9eS-d59TfF-ekeRGE-72">
          <mxGeometry width="50" height="50" relative="1" as="geometry">
            <mxPoint x="297" y="988" as="sourcePoint" />
            <mxPoint x="248" y="1019" as="targetPoint" />
          </mxGeometry>
        </mxCell>
        <mxCell id="syW9eS-d59TfF-ekeRGE-128" value="" style="endArrow=none;html=1;rounded=0;exitX=0.5;exitY=1;exitDx=0;exitDy=0;entryX=0.5;entryY=0;entryDx=0;entryDy=0;" edge="1" parent="1" source="syW9eS-d59TfF-ekeRGE-59" target="syW9eS-d59TfF-ekeRGE-116">
          <mxGeometry width="50" height="50" relative="1" as="geometry">
            <mxPoint x="384" y="1110" as="sourcePoint" />
            <mxPoint x="384" y="1130" as="targetPoint" />
          </mxGeometry>
        </mxCell>
        <mxCell id="syW9eS-d59TfF-ekeRGE-129" value="" style="endArrow=none;html=1;rounded=0;exitX=0.5;exitY=1;exitDx=0;exitDy=0;entryX=0.5;entryY=0;entryDx=0;entryDy=0;" edge="1" parent="1" source="syW9eS-d59TfF-ekeRGE-58" target="syW9eS-d59TfF-ekeRGE-115">
          <mxGeometry width="50" height="50" relative="1" as="geometry">
            <mxPoint x="530" y="1110" as="sourcePoint" />
            <mxPoint x="530" y="1130" as="targetPoint" />
          </mxGeometry>
        </mxCell>
        <mxCell id="syW9eS-d59TfF-ekeRGE-130" value="" style="endArrow=none;html=1;rounded=0;exitX=0.5;exitY=1;exitDx=0;exitDy=0;entryX=0.5;entryY=0;entryDx=0;entryDy=0;" edge="1" parent="1" source="syW9eS-d59TfF-ekeRGE-57" target="syW9eS-d59TfF-ekeRGE-114">
          <mxGeometry width="50" height="50" relative="1" as="geometry">
            <mxPoint x="630" y="1120" as="sourcePoint" />
            <mxPoint x="630" y="1139" as="targetPoint" />
          </mxGeometry>
        </mxCell>
        <mxCell id="syW9eS-d59TfF-ekeRGE-131" value="" style="endArrow=none;html=1;rounded=0;exitX=0.5;exitY=1;exitDx=0;exitDy=0;entryX=0.5;entryY=0;entryDx=0;entryDy=0;" edge="1" parent="1" source="syW9eS-d59TfF-ekeRGE-56" target="syW9eS-d59TfF-ekeRGE-113">
          <mxGeometry width="50" height="50" relative="1" as="geometry">
            <mxPoint x="730" y="1110" as="sourcePoint" />
            <mxPoint x="730" y="1130" as="targetPoint" />
          </mxGeometry>
        </mxCell>
      </root>
    </mxGraphModel>
  </diagram>
</mxfile>
